<?xml version="1.0" encoding="UTF-8" standalone="no"?>
<!-- Created with Inkscape (http://www.inkscape.org/) -->

<svg
        width="180"
        height="180"
        viewBox="0 0 180 180"
        version="1.1"
        id="svg5"
        inkscape:version="1.2.1 (9c6d41e410, 2022-07-14, custom)"
        sodipodi:docname="iotame_icon.svg"
        xmlns:inkscape="http://www.inkscape.org/namespaces/inkscape"
        xmlns:sodipodi="http://sodipodi.sourceforge.net/DTD/sodipodi-0.dtd"
        xmlns="http://www.w3.org/2000/svg"
        xmlns:svg="http://www.w3.org/2000/svg">
    <sodipodi:namedview
            id="namedview7"
            pagecolor="#ffffff"
            bordercolor="#000000"
            borderopacity="0.25"
            inkscape:showpageshadow="2"
            inkscape:pageopacity="0.0"
            inkscape:pagecheckerboard="0"
            inkscape:deskcolor="#d1d1d1"
            inkscape:document-units="px"
            showgrid="false"
            inkscape:zoom="2.246137"
            inkscape:cx="63.664861"
            inkscape:cy="104.40147"
            inkscape:window-width="1327"
            inkscape:window-height="1068"
            inkscape:window-x="1303"
            inkscape:window-y="5"
            inkscape:window-maximized="1"
            inkscape:current-layer="layer1" />
    <defs
            id="defs2" />
    <g
            inkscape:label="Layer 1"
            inkscape:groupmode="layer"
            id="layer1">
        <rect
                style="fill:#0f172a;fill-opacity:0;stroke:#0f172a;stroke-width:7;stroke-dasharray:none;stroke-opacity:1;paint-order:fill markers stroke"
                id="rect111"
                width="163.73633"
                height="163.73633"
                x="3.1318381"
                y="3.1318409"
                ry="41.140072" />
        <rect
                style="fill:#0f172a;fill-opacity:1;stroke-width:1.03125"
                id="rect113"
                width="165"
                height="165"
                x="15"
                y="15"
                ry="36.239223" />
        <g
                aria-label="ι"
                id="text324"
                style="font-size:226.667px;font-family:'Noto Sans Osage';-inkscape-font-specification:'Noto Sans Osage';text-align:center;text-anchor:middle"
                transform="matrix(1.0903014,0,0,1.0903014,-5.6647439,-4.837807)">
            <path
                    d="m 121.05998,130.0457 q 1.99219,-1.4388 2.87761,-1.4388 0.88542,0 0.88542,1.4388 0,0.9961 -0.88542,2.4349 -8.96486,15.49482 -38.405006,15.49482 -1.106772,0 -2.545577,-0.9961 -1.328127,-0.99609 -1.328127,-3.54167 V 69.726602 q 0,-4.648445 -5.091153,-6.419281 -2.213545,-0.77474 -4.759122,-1.217449 -2.545577,-0.553387 -4.095058,-0.996096 -1.438804,-0.442709 -1.881513,-0.77474 -0.332032,-0.442709 -0.332032,-1.660159 0,-1.328127 1.660159,-2.213545 l 28.222698,-13.28127 q 1.328127,-0.664064 1.660159,-0.664064 1.881513,0 1.881513,2.656254 v 87.545708 q 0,4.64844 5.755219,4.64844 5.75522,0 16.38023,-7.3047 z"
                    style="font-family:Cardo;-inkscape-font-specification:Cardo;fill:#ffffff"
                    id="path908" />
        </g>
    </g>
</svg>